<?xml version="1.0" standalone="no"?>
<!DOCTYPE svg PUBLIC "-//W3C//DTD SVG 1.1//EN" "http://www.w3.org/Graphics/SVG/1.1/DTD/svg11.dtd" >
<svg xmlns="http://www.w3.org/2000/svg">
<metadata>Generated by IcoMoon</metadata>
<defs>
<font id="icomoon" horiz-adv-x="1024">
<font-face units-per-em="1024" ascent="960" descent="-64" />
<missing-glyph horiz-adv-x="1024" />
<glyph unicode="&#x20;" horiz-adv-x="512" d="" />
<glyph unicode="&#xe900;" glyph-name="chevron-thin-left" d="M711.219 80.998c13.722-13.926 13.722-36.301 0-50.125s-35.891-13.875-49.613 0l-400.896 404.89c-13.722 13.824-13.722 36.198 0 50.125l400.896 404.89c13.722 13.824 35.891 13.824 49.613 0 13.722-13.875 13.722-36.301 0-50.125l-365.619-379.853 365.619-379.802z" />
<glyph unicode="&#xe901;" glyph-name="chevron-thin-right" d="M678.4 460.8l-365.619 379.904c-13.722 13.824-13.722 36.198 0 50.125 13.722 13.824 35.891 13.824 49.613 0l400.896-404.89c13.722-13.875 13.722-36.301 0-50.125l-400.896-404.89c-13.722-13.875-35.891-13.824-49.613 0-13.722 13.773-13.722 36.198 0 50.125l365.619 379.75z" />
<glyph unicode="&#xe902;" glyph-name="left-arrow" d="M334.018 797.137c14.436 14.436 37.164 14.436 51.6 0 13.949-13.949 13.949-37.164 0-51.080l-261.641-261.641h863.38c20.126 0 36.643-15.997 36.643-36.123s-16.517-36.643-36.643-36.643h-863.38l261.641-261.153c13.949-14.436 13.949-37.684 0-51.6-14.436-14.436-37.164-14.436-51.6 0l-323.581 323.581c-13.949 13.949-13.949 37.164 0 51.080l323.581 323.581z" />
<glyph unicode="&#xe903;" glyph-name="dots-two-horizontal" d="M716.851 573.44c-62.208 0-112.691-50.432-112.691-112.64s50.483-112.64 112.691-112.64c62.208 0 112.589 50.432 112.589 112.64s-50.381 112.64-112.589 112.64zM307.251 573.44c-62.208 0-112.691-50.432-112.691-112.64s50.483-112.64 112.691-112.64c62.208 0 112.589 50.483 112.589 112.64s-50.381 112.64-112.589 112.64z" />
<glyph unicode="&#xe904;" glyph-name="right-arrow" d="M689.853 788.615c-6.637 6.519-15.743 10.544-25.789 10.544s-19.152-4.024-25.794-10.549l0.005 0.005c-6.47-6.327-10.481-15.145-10.481-24.899s4.012-18.572 10.475-24.893l261.773-254.928h-863.448c-0.21 0.004-0.459 0.007-0.707 0.007-19.58 0-35.498-15.677-35.887-35.164l-0.001-0.036c0.333-19.806 16.466-35.734 36.32-35.734 0.115 0 0.231 0.001 0.346 0.002h863.376l-261.659-254.437c-6.47-6.418-10.476-15.312-10.476-25.142s4.005-18.724 10.473-25.14l0.002-0.002c6.637-6.519 15.743-10.544 25.789-10.544s19.152 4.024 25.794 10.549l-0.005-0.005 323.368 315.284c6.453 6.325 10.454 15.131 10.454 24.872s-4 18.548-10.448 24.867l-0.006 0.006z" />
<glyph unicode="&#xe905;" glyph-name="brain" d="M25.105 321.86c5.616-3.891 11.541-7.316 17.715-10.24 7.39-3.772 19.746-10.086 20.617-14.524 1.086-5.827 0.39-11.846-1.997-17.271-2.543-5.461-5.222-10.155-7.509-14.217-6.263-11.025-16.708-29.508-0.939-42.411 3.686-3.413 10.052-8.346 15.872-12.8-4.277-7.468-6.215-16.046-5.564-24.627 0.896-6.716 4.52-12.766 10.018-16.725 3.84-2.731 7.953-5.12 11.947-7.424 10.035-5.717 13.961-8.38 15.36-13.653 0.918-6.943 0.277-14.004-1.877-20.668-1.007-4.437-1.98-8.858-2.611-13.397-1.692-15.566 0.284-31.312 5.769-45.978 7.66-27.177 32.236-46.114 60.467-46.592 4.685 0.017 9.357 0.509 13.943 1.468 48.756 11.555 96.8 25.932 143.889 43.059 38.434-22.562 62.737-91.17 69.069-116.924 1.897-7.606 8.732-12.942 16.572-12.937l428.373 1.195c5.429 0.011 10.529 2.603 13.736 6.983s4.14 10.025 2.511 15.203c-4.221 11.563-10.040 22.478-17.289 32.427-4.1 5.886-7.794 12.045-11.059 18.432-7.717 15.653-14.161 31.901-19.268 48.589-9.735 32.984-16.492 66.775-20.19 100.966-5.991 51.060 1.75 102.793 22.426 149.862 12.617 26.104 28.168 50.686 46.353 73.267 10.24 13.824 20.873 28.143 30.413 43.179 16.403 25.481 28.296 53.597 35.157 83.115 1.964 9.112-3.746 18.113-12.826 20.22s-18.17-3.461-20.42-12.506c-6-25.762-16.392-50.298-30.72-72.533-8.858-14.012-19.098-27.802-29.013-41.148-19.748-24.642-36.601-51.47-50.227-79.957-23.113-52.641-31.75-110.499-25.020-167.595 3.936-36.262 11.139-72.094 21.521-107.059 5.607-18.36 12.69-36.236 21.18-53.453 3.891-7.692 8.311-15.106 13.227-22.187l1.143-1.707-387.106-1.161c-11.344 40.483-31.912 77.787-60.092 108.988l15.36 5.342c11.469 4.011 20.122 7.031 24.593 8.533 73.079 23.296 109.636 56.576 108.629 98.987-0.047 4.53-1.926 8.848-5.209 11.97s-7.689 4.782-12.216 4.602c-9.42-0.224-16.876-8.039-16.657-17.459 0.41-17.459-13.978-43.025-84.924-65.621-4.642-1.485-13.653-4.608-25.446-8.755-12.681-4.42-28.757-10.052-46.507-16.077h-0.119c-47.996-17.599-96.968-32.415-146.671-44.373-15.896-2.989-31.349 6.996-35.157 22.716-3.671 9.633-5.112 19.972-4.215 30.242 0.495 3.413 1.297 6.997 2.082 10.479 3.632 11.913 4.219 24.546 1.707 36.745-4.956 15.629-16.451 28.337-31.505 34.833l-3.669 2.099c1.84 3.737 4.046 7.281 6.588 10.581 2.859 3.632 4.123 8.269 3.502 12.849s-3.073 8.714-6.796 11.454c-4.079 3.004-13.653 10.24-20.821 15.94 0.819 1.485 1.707 3.123 2.577 4.591 2.679 4.71 5.751 10.24 8.721 16.503 5.409 11.955 6.994 25.288 4.54 38.178-4.079 20.821-24.030 31.027-38.588 38.468-4.905 2.333-9.608 5.068-14.063 8.175-3.657 2.449-7.085 5.225-10.24 8.294 0 2.594 2.782 8.858 15.77 24.678 30.54 39.348 56.719 81.894 78.080 126.891 4.010 7.054 6.269 14.967 6.588 23.074-1.787 17.172-10.917 32.731-25.037 42.667-6.912 6.349-13.449 12.322-14.182 17.357 0.156 4.182 1.094 8.298 2.765 12.134 2.782 7.305 6.007 14.473 9.216 21.658 7.197 14.824 12.913 30.321 17.067 46.268 3.911 19.127 9.041 37.984 15.36 56.457 13.452 37.134 34.282 71.159 61.235 100.028 32.631 34.56 84.002 58.999 152.951 72.687 52.74 11.579 106.256 19.291 160.119 23.074 18.123 0.934 36.29 0.546 54.357-1.161 6.085-0.567 12.011 2.155 15.544 7.142s4.139 11.479 1.587 17.033c-2.551 5.553-7.872 9.324-13.957 9.891-19.721 1.807-39.546 2.201-59.324 1.178-55.528-3.853-110.698-11.77-165.069-23.689-76.954-15.36-132.881-42.342-171.042-82.688-30.134-32.214-53.427-70.201-68.471-111.667-6.916-20.179-12.531-40.781-16.811-61.679-3.648-13.402-8.55-26.43-14.643-38.912-3.413-7.765-6.929-15.531-10.001-23.603-3.884-9.023-5.479-18.867-4.642-28.655 3.53-15.234 12.385-28.706 24.969-37.99 8.363-7.663 13.875-13.056 13.943-17.766-0.621-2.591-1.598-5.083-2.901-7.407-20.433-43.035-45.474-83.727-74.684-121.361-12.356-15.070-25.327-32.631-22.613-50.21 3.634-13.554 12.564-25.079 24.781-31.983zM203.742 705.894c10.278 28.493 26.207 54.616 46.831 76.8 22.75 24.081 62.089 41.813 116.941 52.719 9.247 1.833 15.256 10.815 13.423 20.062s-10.815 15.256-20.062 13.423c-61.935-12.322-107.383-33.417-135.1-62.703-23.815-25.561-42.208-55.68-54.067-88.542-5.745-17.050-10.425-34.44-14.012-52.070l33.331-7.39c3.271 16.143 7.517 32.072 12.715 47.701zM560.794 864.427l-10.24-51.063c-9.871-3.242-19.48-7.236-28.74-11.947l-43.332 29.013c-13.539 8.867-31.444 7.006-42.871-4.454l-28.331-28.314c-11.686-11.473-13.577-29.629-4.506-43.264l28.877-43.127c-4.711-9.261-8.705-18.869-11.947-28.74l-50.995-10.24c-15.934-3.219-27.388-17.229-27.375-33.485v-40.277c-0.011-16.229 11.406-30.222 27.307-33.468l51.063-10.24c3.242-9.871 7.236-19.48 11.947-28.74l-29.013-43.332c-8.867-13.539-7.006-31.444 4.454-42.871l28.331-28.331c11.494-11.633 29.609-13.513 43.247-4.489l43.127 28.877c9.261-4.711 18.869-8.705 28.74-11.947l10.24-50.995c3.212-15.941 17.223-27.403 33.485-27.392h40.277c16.229-0.011 30.222 11.406 33.468 27.307l10.24 51.063c9.871 3.242 19.48 7.236 28.74 11.947l43.332-29.013c13.539-8.867 31.444-7.006 42.871 4.454l28.314 28.314c11.686 11.473 13.577 29.629 4.506 43.264l-28.877 43.127c4.711 9.261 8.705 18.869 11.947 28.74l50.995 10.24c10.129 2.048 18.777 8.592 23.501 17.783l25.719-17.237c4.963-3.126 10.707-4.788 16.572-4.796 8.182-0.002 16.026 3.26 21.794 9.062l22.699 22.699c10.322 10.375 11.981 26.557 3.977 38.81l-22.016 32.939c3.193 6.418 5.953 13.044 8.26 19.831l38.622 7.697c14.45 2.839 24.853 15.533 24.798 30.259v32.085c0.052 14.671-10.278 27.332-24.661 30.225l-38.793 7.731c-2.289 6.789-5.038 13.415-8.226 19.831l22.357 33.331c7.747 12.208 5.973 28.159-4.267 38.366l-22.699 22.699c-10.372 10.329-26.558 11.987-38.81 3.977l-32.939-22.016c-6.418 3.193-13.044 5.953-19.831 8.26l-7.714 38.622c-2.838 14.444-15.522 24.845-30.242 24.798h-32.085c-14.671 0.052-27.332-10.278-30.225-24.661l-7.731-38.793c-6.791-2.306-13.417-5.071-19.831-8.277l-33.331 22.357c-12.211 7.734-28.153 5.961-38.366-4.267l-15.36-15.36c-2.207 0.46-4.453 0.706-6.707 0.734h-40.277c-16.229 0.011-30.222-11.406-33.468-27.307zM821.709 797.525l-7.97 7.97c29.582-3.96 53.111-26.77 57.986-56.215s-10.046-58.621-36.772-71.905l-25.907 5.12c-3.242 9.871-7.236 19.48-11.947 28.74l29.013 43.332c8.899 13.535 7.059 31.46-4.403 42.906v0.051zM678.861 880.401l39.014-26.214c5.471-3.669 12.565-3.861 18.227-0.495 9.77 5.75 20.277 10.142 31.232 13.056 6.26 1.691 11.021 6.782 12.288 13.141l9.165 45.978h26.692l9.165-46.080c1.267-6.359 6.028-11.451 12.288-13.141 10.955-2.914 21.462-7.306 31.232-13.056 5.682-3.336 12.776-3.103 18.227 0.597l39.014 26.18 18.944-18.944-26.163-39.031c-3.669-5.471-3.861-12.565-0.495-18.227 5.75-9.77 10.142-20.277 13.056-31.232 1.691-6.26 6.782-11.021 13.141-12.288l46.080-9.165v-26.692l-45.995-9.165c-6.359-1.267-11.451-6.028-13.141-12.288-2.914-10.955-7.306-21.462-13.056-31.232-3.366-5.662-3.174-12.756 0.495-18.227l26.18-39.014-18.944-18.944-38.042 25.446v17.442c0.002 9.992-4.362 19.487-11.947 25.993 30.047 28.945 39.474 73.252 23.813 111.922s-53.261 63.932-94.981 63.813c-10.319-0.065-20.564-1.746-30.362-4.983-8.339 1.215-16.834-0.654-23.893-5.257l-43.093-28.877c-9.261 4.711-18.869 8.705-28.74 11.947l-10.24 50.995c-0.302 1.367-0.695 2.713-1.178 4.028l12.015 12.015zM581.973 796.553l12.288 61.047h40.277l12.271-61.099c1.276-6.341 6.027-11.417 12.271-13.107 14.101-3.801 27.646-9.424 40.294-16.725 5.636-3.269 12.642-3.044 18.057 0.58l51.644 34.543 28.604-28.45-34.645-51.695c-3.624-5.415-3.849-12.42-0.58-18.057 7.302-12.648 12.924-26.194 16.725-40.294 1.691-6.244 6.766-10.995 13.107-12.271l61.047-12.203v-40.294l-61.099-12.271c-6.341-1.276-11.417-6.027-13.107-12.271-3.801-14.101-9.424-27.646-16.725-40.294-3.269-5.636-3.044-12.642 0.58-18.057l34.543-51.644-28.45-28.604-51.695 34.645c-5.415 3.624-12.42 3.849-18.057 0.58-12.648-7.302-26.194-12.924-40.294-16.725-6.244-1.691-10.995-6.766-12.271-13.107l-12.22-61.047h-40.277l-12.271 61.099c-1.276 6.341-6.027 11.417-12.271 13.107-14.101 3.801-27.646 9.424-40.294 16.725-5.636 3.269-12.642 3.044-18.057-0.58l-51.644-34.543-28.604 28.45 34.645 51.695c3.624 5.415 3.849 12.42 0.58 18.057-7.302 12.648-12.924 26.194-16.725 40.294-1.691 6.244-6.766 10.995-13.107 12.271l-61.047 12.22v40.277l61.099 12.271c6.341 1.276 11.417 6.027 13.107 12.271 3.801 14.101 9.424 27.646 16.725 40.294 3.269 5.636 3.044 12.642-0.58 18.057l-34.543 51.644 28.45 28.604 51.695-34.645c5.415-3.624 12.42-3.849 18.057-0.58 12.648 7.302 26.194 12.924 40.294 16.725 6.217 1.713 10.938 6.784 12.203 13.107zM614.4 499.2c65.98 0 119.467 53.487 119.467 119.467s-53.487 119.467-119.467 119.467c-65.98 0-119.467-53.487-119.467-119.467 0.075-65.948 53.518-119.391 119.467-119.467zM614.4 704c47.128 0 85.333-38.205 85.333-85.333s-38.205-85.333-85.333-85.333c-47.128 0-85.333 38.205-85.333 85.333 0.056 47.105 38.228 85.277 85.333 85.333zM631.467 618.667c0-9.426-7.641-17.067-17.067-17.067s-17.067 7.641-17.067 17.067c0 9.426 7.641 17.067 17.067 17.067s17.067-7.641 17.067-17.067zM170.667 601.6c0-9.426-7.641-17.067-17.067-17.067s-17.067 7.641-17.067 17.067c0 9.426 7.641 17.067 17.067 17.067s17.067-7.641 17.067-17.067z" />
<glyph unicode="&#xe906;" glyph-name="chronometer" d="M93.836 354.165c0-230.576 187.588-418.165 418.165-418.165s418.163 187.586 418.163 418.165c0 211.472-157.798 386.757-361.827 414.355v78.808h28.368c18.176 0 32.962 14.788 32.962 32.964v46.744c0 18.176-14.788 32.964-32.962 32.964h-49.704c-8.286 0-15-6.716-15-15s6.714-15 15-15h49.704c1.632 0 2.962-1.33 2.962-2.964v-46.746c0-1.634-1.33-2.964-2.962-2.964-13.298 0-140.558 0-169.406 0-1.634 0-2.964 1.33-2.964 2.964v46.746c0 1.634 1.33 2.964 2.964 2.964h49.702c8.286 0 15 6.716 15 15s-6.714 15-15 15h-49.704c-18.178 0-32.964-14.788-32.964-32.964v-46.746c0-18.176 14.788-32.964 32.964-32.964h28.366v-78.806c-37.132-5.022-72.74-14.914-106.138-29.048l-33.424 57.892c-8.716 15.094-28.088 20.288-43.186 11.572l-42.82-24.722c-15.132-8.736-20.31-28.052-11.572-43.186l34.116-59.090c-96.678-76.66-158.802-195.092-158.802-327.773zM485.663 847.328h52.674v-75.818c-16.902 1.048-35.090 1.092-52.674 0zM244.502 756.028c-0.446 0.77-0.192 1.752 0.592 2.206l42.818 24.722c0.772 0.446 1.764 0.178 2.208-0.59l32.062-55.536c-15.638-7.982-30.798-16.964-45.318-26.85zM485.611 741.412c17.598 1.176 35.406 1.172 53.002-0.014 201.666-13.722 361.551-182.146 361.551-387.235 0-214.034-174.128-388.165-388.163-388.165s-388.165 174.128-388.165 388.165c0 205.164 160 373.635 361.775 387.249zM511.999 16c186.464 0 338.165 151.7 338.165 338.163 0 186.83-152.126 338.163-338.163 338.163h-0.002c-186.462 0-338.163-151.7-338.163-338.163s151.7-338.163 338.163-338.163zM237.976 495.051l11.916-6.88c7.166-4.14 16.346-1.69 20.49 5.49 4.142 7.174 1.684 16.348-5.49 20.49l-11.872 6.854c23.822 36.85 55.288 68.314 92.136 92.136l6.854-11.87c4.144-7.174 13.314-9.634 20.49-5.49 7.174 4.142 9.632 13.316 5.49 20.49l-6.878 11.914c38.060 19.648 80.712 31.594 125.886 33.77v-102.056c0-8.284 6.714-15 15-15s15 6.716 15 15c0 20.596 0 81.676 0 102.056 43.372-2.038 86.524-13.488 125.88-33.78l-6.874-11.904c-4.142-7.174-1.684-16.348 5.49-20.49 7.184-4.146 16.354-1.676 20.49 5.49l6.846 11.86c35.89-23.186 67.602-54.22 92.132-92.132l-11.86-6.848c-7.174-4.142-9.632-13.316-5.49-20.49 4.148-7.184 13.326-9.628 20.49-5.49l11.904 6.874c21.038-40.734 31.908-84.31 33.78-125.88-13.476 0-24.398 0-38.11 0-5.904 17.046-22.768 30-42.43 30h-158.882c-12.396 18.822-31.674 31.508-53.37 35.508v55.226c0 8.284-6.714 15-15 15s-15-6.716-15-15v-55.262c-22.228-4.134-41.324-17.266-53.35-35.472h-45.398c-24.812 0-45-20.186-45-45s20.188-45 45-45h45.396c14.662-22.194 39.818-36.876 68.352-36.876s53.69 14.68 68.352 36.876h158.9c19.554 0 36.228 12.542 42.42 30h38.12c-2.176-45.174-14.124-87.826-33.77-125.886l-11.914 6.878c-7.176 4.146-16.35 1.684-20.49-5.49-4.142-7.174-1.684-16.348 5.49-20.49l11.87-6.852c-23.822-36.85-55.288-68.314-92.136-92.136l-6.852 11.868c-4.142 7.174-13.314 9.632-20.49 5.492-7.174-4.142-9.632-13.316-5.49-20.49l6.878-11.914c-38.060-19.648-80.712-31.596-125.886-33.772v13.796c0 8.284-6.714 15-15 15s-15-6.716-15-15v-13.796c-45.174 2.176-87.826 14.122-125.886 33.77l6.878 11.914c4.142 7.174 1.684 16.348-5.49 20.49-7.176 4.146-16.35 1.686-20.49-5.49l-6.854-11.87c-36.85 23.822-68.314 55.286-92.136 92.136l11.872 6.854c7.174 4.142 9.632 13.316 5.49 20.49-4.14 7.176-13.318 9.634-20.49 5.49l-11.916-6.88c-19.648 38.060-31.596 80.712-33.772 125.886h13.798c8.286 0 15 6.716 15 15s-6.714 15-15 15h-13.798c2.18 45.176 14.128 87.828 33.774 125.888zM592.503 369.165h146.75c8.272 0 15-6.728 15-15s-6.728-15-15-15h-146.75c1.812 9.714 1.786 20.4 0 30zM558.303 330.819c-8.56-16.906-26.094-28.53-46.302-28.53-28.878 0-51.876 23.606-51.876 51.876 0 28.444 23.148 51.874 51.876 51.874 37.124 0 63.586-38.496 46.302-75.22zM431.497 339.165h-33.244c-8.272 0-15 6.728-15 15s6.728 15 15 15h33.244c-1.864-10.032-1.738-20.67 0-30z" />
<glyph unicode="&#xe907;" glyph-name="segment" d="M384 384.667v84h512v-84h-512zM128 682.667h768v-86h-768v86zM384 170.667v86h512v-86h-512z" />
<glyph unicode="&#xe908;" glyph-name="clock" d="M512 15.678c181.964 0 330 147.958 330 329.826 0 181.866-148.038 329.824-330 329.824s-330-147.958-330-329.824c0-181.868 148.036-329.826 330-329.826zM802 345.504c0-95.756-46.72-180.802-118.562-233.604l-141.868 224.772 190.092 78.862c10.204 4.232 15.042 15.934 10.808 26.136-4.232 10.206-15.938 15.048-26.136 10.808l-184.334-76.472v258.62c150-10.304 270-136.032 270-289.122zM492 634.626v-294.354l157.664-249.804c-40.982-22.182-87.876-34.792-137.664-34.792-159.906 0-290 130.016-290 289.826 0 153.092 120 278.82 270 289.124zM913.66 428.1c-5.38 26.3-13.42 52.182-23.88 76.92-10.28 24.282-23 47.702-37.8 69.602-6.422 9.492-13.278 18.716-20.49 27.664l59.45 65.458c3.568 3.93 5.428 9.114 5.172 14.414s-2.61 10.282-6.54 13.846l-76.898 69.76c-8.178 7.42-20.822 6.804-28.242-1.366l-61.35-67.55c-16.538 9.942-33.788 18.738-51.502 26.232-24.74 10.46-50.622 18.5-76.96 23.88-1.45 0.296-2.908 0.568-4.364 0.848l15.984 47.95 44.608 22.264c6.778 3.386 11.152 10.332 11.152 17.908v62.276c0 33.92-27.792 61.794-61.726 61.794h-176.548c-33.934 0-61.726-27.874-61.726-61.794v-62.276c0-7.576 4.374-14.504 11.152-17.89l44.56-22.246 16.010-48.020c-1.44-0.276-2.898-0.518-4.332-0.812-26.34-5.38-52.226-13.42-76.964-23.88-17.114-7.24-33.79-15.704-49.82-25.232l-60.44 66.548c-7.424 8.178-20.068 8.79-28.244 1.368l-76.898-69.76c-3.93-3.564-6.282-8.544-6.54-13.846s1.604-10.484 5.17-14.412l58.076-63.948c-7.662-9.416-14.928-19.152-21.71-29.178-14.8-21.9-27.52-45.32-37.8-69.602-10.46-24.738-18.5-50.62-23.88-76.92-5.54-27-8.34-54.8-8.34-82.6 0-51.52 9.44-101.76 28.080-149.32 1.5-3.818 4.080-7.040 7.48-9.318 5.4-3.622 12.36-4.4 18.44-2.022 10.26 4.022 15.34 15.66 11.32 25.92-16.8 42.9-25.32 88.24-25.32 134.74 0 98.74 38.5 191.6 108.36 261.48 58.118 58.034 132.132 94.39 212.198 105.020h98.882c80.066-10.628 154.080-46.984 212.198-105.020 69.862-69.86 108.34-162.72 108.362-261.48 0-98.74-38.5-191.6-108.362-261.458-69.92-69.84-162.84-108.32-261.64-108.32-92.080 0.020-180.34 34.040-248.52 95.84-3.7 3.34-8.46 5.18-13.44 5.18-5.62 0-11.040-2.4-14.82-6.56-7.4-8.18-6.78-20.86 1.38-28.26 18.2-16.5 37.98-31.44 58.82-44.42 21.040-13.1 43.38-24.22 66.42-33.28 47.82-18.82 98.32-28.22 150.12-28.22h0.042c27.822 0 55.62 2.66 82.62 8.2 26.34 5.38 52.22 13.332 76.96 23.812 24.298 10.26 47.74 22.944 69.638 37.724 21.72 14.66 42.14 31.482 60.682 50.022 18.558 18.542 35.398 38.952 50.078 60.632 14.8 21.92 27.522 45.334 37.8 69.614 10.46 24.72 18.5 50.598 23.88 76.918 5.54 27 8.34 54.78 8.34 82.58 0.002 27.798-2.798 55.596-8.338 82.596zM222.1 635.26c-0.508-0.508-1-1.032-1.506-1.542l-41.874 46.106 47.272 42.882 42.896-47.232c-16.554-12.212-32.254-25.68-46.788-40.214zM549.514 752h-75.028l-14.976 44.972c21.528 5.564 60.656 11.652 104.952-0.118zM435.362 831.67l-33.362 16.622v49.914c0 11.864 9.848 21.794 21.726 21.794h176.548c11.876 0 21.726-9.93 21.726-21.794v-49.912l-33.502-16.714c-69.738 23.148-130.44 7.746-153.136 0.090zM757.696 675.462l42.908 47.244 47.272-42.882-42.908-47.244zM281.98 365.24c-11.040-0.020-20-8.98-19.98-20.020 0.020-11.042 8.98-20 20.020-19.98s20 8.98 19.98 20.020c-0.020 11.060-8.98 20-20.020 19.98zM512.14 95.64c11.040 0 20 8.958 20 20-0.020 11.060-8.98 20-20.020 20-11.040-0.020-20-8.96-19.98-20.020 0-11.040 8.96-19.998 20-19.98zM722 345.98v-0.48c0-11.040 8.958-20 20-20 11.040 0 20 8.96 20 20v0.58c0 11.042-9 19.98-20.042 19.94-11.058-0.020-19.958-8.978-19.958-20.040zM210.868 124.26c0-11.046-8.954-20-20-20s-20 8.954-20 20c0 11.046 8.954 20 20 20s20-8.954 20-20z" />
<glyph unicode="&#xe909;" glyph-name="foursquare-check-in" d="M0 415.331l350.663-351.332 673.337 672.672-96.669 95.332-576.669-576-255.333 255.331z" />
<glyph unicode="&#xe90a;" glyph-name="align-left" d="M725.333 554.667h-597.333c-23.552 0-42.667-19.115-42.667-42.667s19.115-42.667 42.667-42.667h597.333c23.552 0 42.667 19.115 42.667 42.667s-19.115 42.667-42.667 42.667zM896 725.334h-768c-23.552 0-42.667-19.115-42.667-42.667s19.115-42.667 42.667-42.667h768c23.552 0 42.667 19.115 42.667 42.667s-19.115 42.667-42.667 42.667zM896 384h-768c-23.552 0-42.667-19.115-42.667-42.667s19.115-42.667 42.667-42.667h768c23.552 0 42.667 19.115 42.667 42.667s-19.115 42.667-42.667 42.667zM725.333 213.334h-597.333c-23.552 0-42.667-19.115-42.667-42.667s19.115-42.667 42.667-42.667h597.333c23.552 0 42.667 19.115 42.667 42.667s-19.115 42.667-42.667 42.667z" />
<glyph unicode="&#xe90b;" glyph-name="segment1" d="M384 384.667v84h512v-84h-512zM128 682.667h768v-86h-768v86zM384 170.667v86h512v-86h-512z" />
<glyph unicode="&#xe90c;" glyph-name="menu1" d="M128 682.667h768v-86h-768v86zM128 384.667v84h768v-84h-768zM128 170.667v86h768v-86h-768z" />
<glyph unicode="&#xe90d;" glyph-name="align-right" d="M896 554.667h-597.333c-23.552 0-42.667-19.115-42.667-42.667s19.115-42.667 42.667-42.667h597.333c23.552 0 42.667 19.115 42.667 42.667s-19.115 42.667-42.667 42.667zM896 725.334h-768c-23.552 0-42.667-19.115-42.667-42.667s19.115-42.667 42.667-42.667h768c23.552 0 42.667 19.115 42.667 42.667s-19.115 42.667-42.667 42.667zM896 384h-768c-23.552 0-42.667-19.115-42.667-42.667s19.115-42.667 42.667-42.667h768c23.552 0 42.667 19.115 42.667 42.667s-19.115 42.667-42.667 42.667zM896 213.334h-597.333c-23.552 0-42.667-19.115-42.667-42.667s19.115-42.667 42.667-42.667h597.333c23.552 0 42.667 19.115 42.667 42.667s-19.115 42.667-42.667 42.667z" />
<glyph unicode="&#xe90e;" glyph-name="graph" d="M90.66 393.959l-79.392-81.84c-15.35-15.826-14.968-41.1 0.858-56.452 7.756-7.526 17.778-11.268 27.794-11.268 10.42 0 20.832 4.056 28.658 12.124l79.392 81.84c15.35 15.826 14.968 41.1-0.858 56.452-15.826 15.354-41.1 14.97-56.452-0.856zM275.463 368.159c-22.046 0-39.922-17.874-39.922-39.922v-351.317c0-22.046 17.874-39.922 39.922-39.922h0.002c22.046 0 39.922 17.874 39.922 39.922l-0.004 351.319c0 22.046-17.872 39.92-39.92 39.92zM431.159 455.985c-22.046 0-39.922-17.874-39.922-39.922v-439.143c0-22.046 17.874-39.922 39.922-39.922s39.922 17.874 39.922 39.922v439.145c-0.002 22.046-17.874 39.92-39.922 39.92zM904.234 959.004h-119.766c-22.048 0-39.922-17.874-39.922-39.922s17.874-39.922 39.922-39.922h105.22l-293.141-293.079c-7.864-7.866-18.156-12.34-28.334-12.34-0.214 0-0.432 0.002-0.646 0.006-9.802 0.184-19.82 4.678-27.476 12.336l-46.936 46.936c-22.978 22.978-53.482 36.298-83.696 36.546-0.294 0.002-0.586 0.002-0.878 0.002-31.272 0-62.5-13.67-85.838-37.598l-85.552-85.938c-15.556-15.626-15.5-40.902 0.126-56.458 7.788-7.754 17.976-11.63 28.164-11.63 10.246 0 20.492 3.922 28.292 11.758l85.708 86.092c0.118 0.116 0.232 0.234 0.348 0.352 8.336 8.586 19.2 13.678 28.976 13.58 9.302-0.076 19.73-4.996 27.896-13.162l46.936-46.936c22.452-22.454 51.732-35.136 82.446-35.708 31.938-0.6 63.644 12.418 86.926 35.704l291.147 291.089v-99.244c0-22.048 17.874-39.922 39.922-39.922s39.922 17.874 39.922 39.922v117.77c0 66.038-53.726 119.766-119.766 119.766zM117.904 188.506c-22.1 0.076-40.058-17.82-40.058-39.922v-171.664c0-22.046 17.874-39.922 39.922-39.922h0.002c22.048 0 39.922 17.874 39.922 39.922v171.664c-0.002 21.996-17.79 39.848-39.788 39.922zM902.238 617.669c-22.048 0-39.922-17.874-39.922-39.922v-600.829c0-22.046 17.874-39.922 39.922-39.922h0.002c22.046 0 39.922 17.874 39.922 39.922v600.829c-0.002 22.050-17.874 39.922-39.924 39.922zM586.853 406.083c-22.048 0-39.922-17.874-39.922-39.922v-389.241c0-22.046 17.874-39.922 39.922-39.922h0.002c22.046 0 39.922 17.874 39.922 39.922v389.241c-0.002 22.048-17.874 39.922-39.924 39.922zM744.401 481.935c-21.992-0.080-39.776-17.932-39.776-39.922v-465.095c0-22.046 17.874-39.922 39.922-39.922h0.002c22.046 0 39.922 17.874 39.922 39.922v465.095c-0.004 22.106-17.966 40.004-40.070 39.922z" />
<glyph unicode="&#xe90f;" glyph-name="login" d="M981.334 960h-768c-23.564 0-42.668-19.102-42.668-42.666v-298.666c0-23.564 19.102-42.666 42.666-42.666s42.666 19.102 42.666 42.666v256h682.666v-853.334h-682.664v256c0 23.564-19.102 42.666-42.666 42.666s-42.666-19.102-42.666-42.666v-298.666c0-23.564 19.102-42.666 42.666-42.666h768c23.564 0 42.666 19.102 42.666 42.666v938.666c0 23.564-19.102 42.666-42.666 42.666zM396.496 307.498c-16.662-16.662-16.662-43.678 0-60.34s43.678-16.662 60.34 0l170.666 170.666c0.008 0.008 0.012 0.016 0.020 0.022 0.986 0.988 1.92 2.024 2.806 3.104 0.406 0.494 0.758 1.014 1.138 1.522 0.454 0.606 0.924 1.2 1.346 1.832 0.406 0.608 0.758 1.238 1.13 1.862 0.342 0.572 0.7 1.13 1.016 1.718 0.34 0.636 0.628 1.288 0.934 1.938 0.29 0.614 0.596 1.218 0.858 1.846 0.26 0.63 0.472 1.274 0.7 1.914 0.242 0.674 0.5 1.338 0.708 2.026 0.194 0.64 0.336 1.292 0.498 1.938 0.178 0.702 0.374 1.396 0.516 2.11 0.148 0.75 0.238 1.506 0.346 2.26 0.088 0.622 0.208 1.234 0.27 1.866 0.276 2.8 0.276 5.622 0 8.422-0.062 0.63-0.18 1.242-0.27 1.866-0.108 0.754-0.196 1.512-0.346 2.26-0.142 0.716-0.338 1.408-0.516 2.11-0.162 0.648-0.304 1.298-0.498 1.938-0.208 0.688-0.466 1.354-0.708 2.026-0.23 0.64-0.44 1.284-0.7 1.914s-0.568 1.232-0.858 1.846c-0.306 0.648-0.594 1.302-0.934 1.938-0.316 0.588-0.674 1.146-1.016 1.718-0.372 0.624-0.724 1.254-1.13 1.862-0.422 0.632-0.892 1.224-1.346 1.832-0.38 0.508-0.732 1.028-1.138 1.522-0.886 1.080-1.82 2.118-2.806 3.104-0.008 0.008-0.012 0.016-0.020 0.022l-170.666 170.666c-16.662 16.662-43.678 16.662-60.34 0s-16.662-43.678 0-60.34l97.83-97.83h-451.66c-23.564 0.004-42.666-19.098-42.666-42.662s19.102-42.666 42.666-42.666h451.66l-97.83-97.832z" />
<glyph unicode="&#xe910;" glyph-name="pause" d="M249 960h-70c-88.224 0-160-71.776-160-160v-704c0-88.224 71.776-160 160-160h70c88.224 0 160 71.776 160 160v704c0 88.224-71.776 160-160 160zM329 96c0-44.112-35.888-80-80-80h-70c-44.112 0-80 35.888-80 80v704c0 44.112 35.888 80 80 80h70c44.112 0 80-35.888 80-80v-704zM965 256c22.092 0 40 17.908 40 40v504c0 88.224-71.776 160-160 160h-68c-88.224 0-160-71.776-160-160v-704c0-88.224 71.776-160 160-160h68c88.224 0 160 71.776 160 160 0 22.092-17.908 40-40 40s-40-17.908-40-40c0-44.112-35.888-80-80-80h-68c-44.112 0-80 35.888-80 80v704c0 44.112 35.888 80 80 80h68c44.112 0 80-35.888 80-80v-504c0-22.092 17.908-40 40-40z" />
<glyph unicode="&#xe911;" glyph-name="chevron-right" d="M366.336 700.331c-33.323-33.323-33.323-87.339 0-120.661l152.96-153.003-152.96-153.003c-33.323-33.323-33.323-87.339 0-120.661 16.64-16.683 38.485-25.003 60.331-25.003s43.691 8.32 60.331 25.003l273.707 273.664-273.707 273.664c-33.28 33.323-87.381 33.323-120.661 0z" />
<glyph unicode="&#xe912;" glyph-name="chevron-left" d="M614.997 700.331c-33.28 33.323-87.381 33.323-120.661 0l-273.707-273.664 273.707-273.664c16.64-16.683 38.485-25.003 60.331-25.003s43.691 8.32 60.331 25.003c33.323 33.323 33.323 87.339 0 120.661l-152.96 153.003 152.96 153.003c33.323 33.323 33.323 87.339 0 120.661z" />
<glyph unicode="&#xe913;" glyph-name="physics-bottle" d="M592 496c-11.040 0-20-8.96-20-20s8.96-20 20-20c11.040 0 20 8.96 20 20s-8.96 20-20 20zM512 616c-11.040 0-20-8.96-20-20s8.96-20 20-20c11.040 0 20 8.96 20 20s-8.96 20-20 20zM272 96c-11.040 0-20-8.96-20-20s8.96-20 20-20 20 8.96 20 20c0 11.040-8.96 20-20 20zM908.832 144.644l-256.832 456.594v242.19c23.282 8.254 40 30.496 40 56.572 0 33.084-26.916 60-60 60h-240c-33.084 0-60-26.916-60-60 0-26.076 16.718-48.318 40-56.572v-242.19l-256.832-456.594c-24.656-43.832-24.218-95.918 1.168-139.326 25.384-43.404 70.56-69.318 120.844-69.318h549.64c50.284 0 95.458 25.914 120.844 69.318 25.386 43.408 25.824 95.494 1.168 139.326zM409.432 586.196c1.684 2.992 2.568 6.37 2.568 9.804v244h20c11.044 0 20 8.956 20 20s-8.956 20-20 20h-40c-11.028 0-20 8.972-20 20s8.972 20 20 20h240c11.028 0 20-8.972 20-20s-8.972-20-20-20h-40c-11.044 0-20-8.956-20-20s8.956-20 20-20h20v-244c0-3.436 0.884-6.81 2.568-9.804l117.882-209.574c-71.99 5.83-143.73-8.73-209.642-42.86-84.732-43.848-179.058-51.568-268-22.454l154.624 274.888zM873.134 25.512c-18.13-31.002-50.398-49.512-86.314-49.512h-549.64c-35.916 0-68.184 18.51-86.314 49.512-18.134 31.006-18.448 68.212-0.834 99.524l84.816 150.784c41.152-14.37 83.68-21.624 126.874-21.624 6.394 0 12.804 0.158 19.226 0.476 55.81 2.764 109.724 17.422 160.248 43.568 67.584 34.992 141.918 47.072 215.566 35.162l117.208-208.366c17.612-31.312 17.3-68.518-0.836-99.524zM432 496c-33.084 0-60-26.916-60-60s26.916-60 60-60 60 26.916 60 60-26.916 60-60 60zM432 416c-11.028 0-20 8.972-20 20s8.972 20 20 20c11.028 0 20-8.972 20-20s-8.972-20-20-20zM752 96h-400c-11.044 0-20-8.956-20-20s8.956-20 20-20h400c11.044 0 20 8.956 20 20s-8.956 20-20 20z" />
<glyph unicode="&#xe914;" glyph-name="planet" d="M892.804 442.235c-10.364 3.804-21.9-1.634-25.71-11.998-0.004-0.012-0.008-0.024-0.014-0.038-3.79-10.372 1.496-21.976 11.864-25.772 2.242-0.82 4.538-1.208 6.798-1.208 8.172 0 15.88 5.078 18.876 13.166 0.008 0.022 0.016 0.044 0.024 0.066 3.802 10.366-1.472 21.978-11.838 25.784zM912.848 656.881c-14.872 50.61-39.738 96.924-73.914 137.65-116.26 138.552-310.699 173.704-465.489 95.152-0.262 0.572-0.546 1.14-0.868 1.696l-33.844 58.616c-5.524 9.566-17.754 12.844-27.32 7.32-9.566-5.522-12.844-17.754-7.32-27.32l0.696-1.204c-55.556-35.152-101.712-80.872-137.32-136.194-5.978-9.29-3.294-21.664 5.994-27.642 3.348-2.156 7.098-3.184 10.806-3.184 6.574 0 13.014 3.238 16.836 9.178 32.124 49.916 73.7 91.258 123.698 123.172l13.13-22.742c0.314-0.544 0.678-1.036 1.034-1.54-13.144-8.508-25.91-17.904-38.206-28.222-161.354-135.394-182.476-376.819-47.084-538.175 75.458-89.926 183.828-136.29 292.937-136.29 59.526 0 119.272 13.808 174 41.874 0.354-0.89 0.752-1.77 1.246-2.622l13.142-22.762c-58.214-30.196-121.666-45.754-185.934-46.084-0.58 0.050-1.162 0.088-1.756 0.088-0.494 0-0.98-0.038-1.466-0.074-35.298 0.098-70.818 4.758-105.822 14.138-105.95 28.39-194.504 96.338-249.346 191.332-47.816 82.822-65.286 180.252-49.184 274.345 1.862 10.888-5.454 21.224-16.34 23.086-10.886 1.864-21.224-5.456-23.086-16.34-17.668-103.276 1.5-210.204 53.972-301.093 60.186-104.246 157.364-178.814 273.635-209.968 32.308-8.656 65.014-13.66 97.64-15.1v-37.97h-106.246c-57.346 0-104.002-46.654-104.002-104.002 0-11.046 8.954-20 20-20h420.493c11.046 0 20 8.954 20 20 0 57.348-46.654 104.002-104.002 104.002h-106.244v37.996c64.958 2.956 128.804 20.118 187.708 50.972l0.682-1.182c3.704-6.416 10.426-10.002 17.338-10.002 3.392 0 6.832 0.864 9.982 2.682 9.566 5.522 12.844 17.754 7.32 27.32l-33.842 58.62c-0.512 0.888-1.1 1.702-1.72 2.48 12.742 8.312 25.13 17.454 37.072 27.472 24.64 20.676 46.552 44.294 65.128 70.204 6.436 8.976 4.376 21.47-4.6 27.908-8.976 6.436-21.472 4.376-27.908-4.6-16.626-23.188-36.25-44.34-58.332-62.868-106.692-89.526-252.476-102.598-370.249-45.126v63.49l2.966 1.578c24.864 13.218 34.338 44.202 21.12 69.068l-7.084 13.322c-1.11 2.086-1.518 4.428-1.182 6.768 2.078 14.49-2.17 29.194-11.656 40.344-9.486 11.148-23.32 17.698-37.954 17.968l-32.616 0.602-70.496 36.302c-5.828 3-12.756 2.956-18.544-0.122l-28.226-15.006c-25.966 120.136 13.74 250.436 114.256 334.781 43.336 36.364 93.126 60.102 144.866 71.638l-13.932-25.594-71.102-39.932c-16.164-9.078-27.72-24.666-31.706-42.772l-5.63-25.578c-4.854-22.042 1.864-44.646 17.968-60.462l33.742-33.134c1.914-1.88 4.156-3.304 6.562-4.27-2.036-1.23-3.98-2.56-5.772-4.030-8.1-6.648-13.666-17.68-20.648-32.54-1.994-4.242-4.054-8.626-5.404-10.878-1.282-2.138-2.574-4.236-3.854-6.312-6.944-11.274-14.126-22.932-18.2-37.838-9.030-33.036 0.154-67.994 23.97-91.23 23.094-22.532 55.926-30.27 87.836-20.696 5.208 1.562 10.024 3.696 14.274 5.58 10.936 4.848 13.108 5.132 15.388 3.644 0.176-0.116 0.31-0.21 0.408-0.286 0.262-0.872 0.576-2.724 0.814-4.124 0.676-3.988 1.602-9.448 4.196-15.372 4.274-9.76 11.852-15.626 17.386-19.908 1.824-1.412 4.58-3.544 5.222-4.452 5.142-8.022 4.782-12.476 2.744-26.69l-0.522-3.672c-3.256-23.466 10.624-43.722 21.774-59.998 3.556-5.188 6.914-10.088 9.25-14.374 20.814-38.15 33.402-45.812 42.97-48.278 2.944-0.758 5.864-1.11 8.748-1.11 25.658 0 48.312 27.844 57.434 44.194 5.564 9.974 5.778 19.098 5.918 25.136 0.046 2.026 0.1 4.324 0.386 5.096 0.722 1.956 1.77 3.658 3.22 6.014 3.198 5.198 7.578 12.316 9.12 23.848 0.9 6.726 1.724 7.986 6.3 14.976 0.818 1.25 1.692 2.586 2.626 4.046 17.24 26.972 8.368 44.224-0.214 60.908-5.352 10.406-1.536 18.106 14.368 39.182 6.958 9.222 14.154 18.758 19.228 29.824 2.416 5.27 9.772 21.31 0.628 35.216-8.996 13.682-24.952 13.322-36.602 13.064-3.44-0.080-9.17-0.206-11.108 0.358-8.522 3.724-15.686 14.288-22.616 24.504-1.488 2.194-2.956 4.358-4.426 6.452-2.49 3.546-5.186 8.012-8.042 12.74-7.93 13.132-16.916 28.018-29.824 37.626-12.048 8.968-30.9 10.668-47.534 12.166-5.238 0.472-10.184 0.916-13.342 1.49-3.856 0.698-7.834 0.248-11.44-1.294-7.868-3.372-12.716-6.506-16.21-10.486-1.19-1.356-2.286-2.952-3.186-4.736-3.524 1.29-7.448 2.948-10.698 4.358-0.404 5.928-2.712 10.434-4.768 13.338-13.134 18.546-42.824 11.828-48.64 10.29-2.844-0.75-6.568-1.544-10.512-2.384-4.79-1.022-9.952-2.122-15.16-3.468 0.788 1.644 1.36 3.408 1.678 5.256l6.078 35.392 87.142 15.364 75.572-12.458 20.816-13.866 1.398-7.932c0.56-3.174 1.878-6.166 3.844-8.72l50.178-65.236c3.908-5.082 9.832-7.808 15.866-7.808 3.436 0 6.908 0.884 10.060 2.722l10.212 5.954c24.378 14.212 45.82 33.942 62.006 57.058 3.892 5.558 4.606 12.518 2.322 18.556 0.214-0.084 0.416-0.202 0.598-0.352l21.542-17.756c0.208-0.17 0.378-0.374 0.512-0.604l12.29-21.302c7.028-12.182 20.132-19.216 34.152-18.376 10.86 0.656 20.574 5.944 26.972 14.29 11.582-41.588 15.178-85.486 10.226-129.91-1.224-10.978 6.684-20.87 17.662-22.092 10.98-1.234 20.87 6.684 22.092 17.662 5.668 50.84 1.26 101.398-13.1 150.276zM673.555 20c28.308 0 52.384-18.474 60.802-44h-374.095c8.416 25.526 32.492 44 60.802 44h252.49zM249.978 450.967l65.328-33.64c2.72-1.4 5.728-2.16 8.788-2.216l37.268-0.686c4.342-0.082 7.018-2.474 8.226-3.894s3.144-4.446 2.526-8.746c-1.548-10.796 0.34-21.592 5.46-31.222l7.082-13.322c2.866-5.39 0.812-12.106-4.578-14.972l-13.578-7.218c-6.53-3.472-10.612-10.264-10.612-17.66v-52.506c-26.17 17.524-50.33 38.964-71.57 64.276-27.536 32.818-47.818 69.342-61.064 107.604l26.724 14.202zM456.227 625.111c4.254 0.908 8.282 1.766 11.938 2.714 0.178-1.026 0.436-2.044 0.778-3.044 2.028-5.946 6.73-10.592 12.7-12.548 2.732-0.896 6.85-2.702 11.208-4.614 13.266-5.82 28.308-12.418 41.91-10.904 13.478 1.5 19.678 10.534 22.012 13.936 0.106 0.154 0.208 0.306 0.312 0.456 0.772 0.918 1.498 1.944 2.14 3.064 1.27-0.118 2.562-0.234 3.868-0.352 7.53-0.678 23.152-2.086 27.368-4.51 6.568-4.97 13.348-16.202 19.336-26.12 3.080-5.102 6.266-10.376 9.55-15.052 1.348-1.92 2.694-3.906 4.056-5.916 9.246-13.632 20.75-30.596 40.112-38.882 7.098-3.038 14.558-3.598 21.566-3.606-2.918-4.5-6.416-9.136-10.036-13.932-15.048-19.944-35.66-47.256-18.008-81.574 6.932-13.478 6.932-13.478 2.080-21.072-0.85-1.328-1.644-2.542-2.39-3.68-5.566-8.506-10.376-15.85-12.478-31.584-0.416-3.108-1.266-4.492-3.54-8.186-2.038-3.312-4.574-7.434-6.67-13.104-2.602-7.036-2.75-13.392-2.858-18.036-0.098-4.202-0.21-5.414-0.862-6.582-5.514-9.882-15.384-20.096-20.826-22.964-2.862 3.026-8.836 10.522-18.28 27.828-3.308 6.064-7.406 12.042-11.368 17.824-7.63 11.136-16.28 23.758-15.152 31.888l0.496 3.492c2.332 16.246 4.742 33.042-8.66 53.954-4.25 6.634-9.89 10.998-14.422 14.504-1.82 1.408-4.536 3.51-5.314 4.53-0.566 1.402-0.896 3.358-1.31 5.8-1.352 7.974-3.614 21.318-18.808 31.228-21.092 13.756-41.344 4.784-53.444-0.578-3.48-1.542-6.766-2.998-9.564-3.838-18.042-5.412-35.682-1.398-48.404 11.014-13.414 13.088-18.518 33.032-13.318 52.050 2.56 9.366 7.708 17.726 13.672 27.408 1.36 2.208 2.734 4.44 4.098 6.714 2.392 3.986 4.778 9.066 7.306 14.444 2.632 5.602 7.494 15.948 10.062 18.818 5.088 3.886 20.11 7.088 29.144 9.012zM846.354 670.457l-9.156 15.872c-2.534 4.39-5.802 8.252-9.716 11.48l-21.542 17.756c-9.544 7.868-22.008 11.146-34.186 9l-21.856-3.854c-9.68-1.706-17.596-8.568-20.658-17.908-2.99-9.12-0.852-19.078 5.57-26.156-9.976-11.47-21.652-21.53-34.462-29.66l-36.394 47.314-2.032 11.528c-0.95 5.382-4.060 10.142-8.608 13.172l-31.522 21c-2.364 1.574-5.034 2.626-7.834 3.088l-83.19 13.714c-2.228 0.37-4.502 0.356-6.726-0.038l-104.358-18.4c-8.312-1.466-14.81-7.992-16.24-16.312l-1.994-11.608-6.484 6.368c-6.21 6.098-8.802 14.816-6.93 23.318l5.63 25.578c1.538 6.984 5.994 12.996 12.228 16.498l76.122 42.75c3.28 1.842 5.974 4.572 7.772 7.876l31.062 57.062c105.962 7.768 214.084-33.654 287.443-121.078 19.55-23.3 35.652-48.598 48.178-75.32-2.382-5.19-5.758-12.88-10.116-23.040zM152.196 723.206c-10.298 3.994-21.884-1.118-25.878-11.416l-0.604-1.566c-3.954-10.316 1.206-21.88 11.52-25.832 2.354-0.902 4.772-1.328 7.152-1.328 8.044 0 15.63 4.89 18.68 12.85l0.546 1.414c3.994 10.298-1.118 21.884-11.416 25.878z" />
<glyph unicode="&#xe915;" glyph-name="plus" d="M932.571 539.429h-310.857c-10.098 0-18.286 8.187-18.286 18.286v310.857c0 50.491-40.937 91.429-91.429 91.429s-91.429-40.937-91.429-91.429v-310.857c0-10.098-8.187-18.286-18.286-18.286h-310.857c-50.491 0-91.429-40.937-91.429-91.429s40.937-91.429 91.429-91.429h310.857c10.098 0 18.286-8.187 18.286-18.286v-310.857c0-50.491 40.937-91.429 91.429-91.429s91.429 40.937 91.429 91.429v310.857c0 10.098 8.187 18.286 18.286 18.286h310.857c50.491 0 91.429 40.937 91.429 91.429s-40.937 91.429-91.429 91.429z" />
<glyph unicode="&#xe916;" glyph-name="menu11" d="M128 682.667h768v-86h-768v86zM128 384.667v84h768v-84h-768zM128 170.667v86h768v-86h-768z" />
<glyph unicode="&#xe917;" glyph-name="arrow-thin-down" d="M460.8 144.794l-310.835 310.835-72.397-72.397 434.432-434.432 434.432 434.432-72.397 72.397-310.835-310.835v828.006h-102.4z" />
<glyph unicode="&#xe918;" glyph-name="align-left1" d="M725.333 554.667h-597.333c-23.552 0-42.667-19.115-42.667-42.667s19.115-42.667 42.667-42.667h597.333c23.552 0 42.667 19.115 42.667 42.667s-19.115 42.667-42.667 42.667zM896 725.334h-768c-23.552 0-42.667-19.115-42.667-42.667s19.115-42.667 42.667-42.667h768c23.552 0 42.667 19.115 42.667 42.667s-19.115 42.667-42.667 42.667zM896 384h-768c-23.552 0-42.667-19.115-42.667-42.667s19.115-42.667 42.667-42.667h768c23.552 0 42.667 19.115 42.667 42.667s-19.115 42.667-42.667 42.667zM725.333 213.334h-597.333c-23.552 0-42.667-19.115-42.667-42.667s19.115-42.667 42.667-42.667h597.333c23.552 0 42.667 19.115 42.667 42.667s-19.115 42.667-42.667 42.667z" />
<glyph unicode="&#xe919;" glyph-name="arrow-thin-up" d="M460.8 776.806l-310.835-310.835-72.397 72.397 434.432 434.432 434.432-434.432-72.397-72.397-310.835 310.835v-828.006h-102.4v828.006z" />
<glyph unicode="&#xe91a;" glyph-name="align-right1" d="M896 554.667h-597.333c-23.552 0-42.667-19.115-42.667-42.667s19.115-42.667 42.667-42.667h597.333c23.552 0 42.667 19.115 42.667 42.667s-19.115 42.667-42.667 42.667zM896 725.334h-768c-23.552 0-42.667-19.115-42.667-42.667s19.115-42.667 42.667-42.667h768c23.552 0 42.667 19.115 42.667 42.667s-19.115 42.667-42.667 42.667zM896 384h-768c-23.552 0-42.667-19.115-42.667-42.667s19.115-42.667 42.667-42.667h768c23.552 0 42.667 19.115 42.667 42.667s-19.115 42.667-42.667 42.667zM896 213.334h-597.333c-23.552 0-42.667-19.115-42.667-42.667s19.115-42.667 42.667-42.667h597.333c23.552 0 42.667 19.115 42.667 42.667s-19.115 42.667-42.667 42.667z" />
<glyph unicode="&#xe91b;" glyph-name="question-mark" d="M746.667-64c-152.917 0-277.333 124.416-277.333 277.333s124.416 277.333 277.333 277.333 277.333-124.416 277.333-277.333-124.416-277.333-277.333-277.333zM746.667 448c-129.408 0-234.667-105.301-234.667-234.667s105.259-234.667 234.667-234.667 234.667 105.301 234.667 234.667-105.259 234.667-234.667 234.667zM746.667 106.667c-11.776 0-21.333 9.557-21.333 21.333v11.221c0 41.003 21.547 80.299 59.136 107.776 16.64 12.203 26.197 31.061 26.197 51.669 0 35.285-28.715 64-64 64s-64-28.715-64-64c0-11.776-9.557-21.333-21.333-21.333s-21.333 9.557-21.333 21.333c0 58.837 47.872 106.667 106.667 106.667s106.667-47.829 106.667-106.667c0-33.835-16.299-66.048-43.648-86.101-15.573-11.392-41.685-36.053-41.685-73.344v-11.221c0-11.776-9.557-21.333-21.333-21.333zM746.667 21.333c-5.547 0-11.093 2.133-14.933 6.4-4.267 3.84-6.4 9.387-6.4 14.933 0 2.987 0.427 5.547 1.707 8.107 0.853 2.56 2.56 5.12 4.693 6.827 1.707 2.133 4.267 3.84 6.827 4.651 7.68 3.413 17.067 1.28 23.040-4.651 4.267-3.84 6.4-9.387 6.4-14.933 0-2.56-0.427-5.547-1.707-8.064-0.853-2.603-2.56-5.12-4.693-6.827-3.84-4.309-9.387-6.443-14.933-6.443zM405.333 64h-298.667c-58.795 0-106.667 47.829-106.667 106.667v554.667c0 58.837 47.872 106.667 106.667 106.667h85.333c11.776 0 21.333-9.557 21.333-21.333s-9.557-21.333-21.333-21.333h-85.333c-35.285 0-64-28.715-64-64v-554.667c0-35.285 28.715-64 64-64h298.667c11.776 0 21.333-9.557 21.333-21.333s-9.557-21.333-21.333-21.333zM490.667 704h-256c-35.285 0-64 28.715-64 64v85.333c0 11.776 9.557 21.333 21.333 21.333h66.133c9.941 48.64 52.992 85.333 104.533 85.333s94.592-36.693 104.533-85.333h66.133c11.776 0 21.333-9.557 21.333-21.333v-85.333c0-35.285-28.715-64-64-64zM213.333 832v-64c0-11.733 9.557-21.333 21.333-21.333h256c11.776 0 21.333 9.6 21.333 21.333v64h-64c-11.776 0-21.333 9.557-21.333 21.333 0 35.285-28.715 64-64 64s-64-28.715-64-64c0-11.776-9.557-21.333-21.333-21.333zM576 576h-426.667c-11.776 0-21.333 9.557-21.333 21.333s9.557 21.333 21.333 21.333h426.667c11.776 0 21.333-9.557 21.333-21.333s-9.557-21.333-21.333-21.333zM448 448h-298.667c-11.776 0-21.333 9.557-21.333 21.333s9.557 21.333 21.333 21.333h298.667c11.776 0 21.333-9.557 21.333-21.333s-9.557-21.333-21.333-21.333zM362.667 320h-213.333c-11.776 0-21.333 9.557-21.333 21.333s9.557 21.333 21.333 21.333h213.333c11.776 0 21.333-9.557 21.333-21.333s-9.557-21.333-21.333-21.333zM704 576c-11.776 0-21.333 9.557-21.333 21.333v128c0 35.285-28.715 64-64 64h-85.333c-11.776 0-21.333 9.557-21.333 21.333s9.557 21.333 21.333 21.333h85.333c58.795 0 106.667-47.829 106.667-106.667v-128c0-11.776-9.557-21.333-21.333-21.333z" />
<glyph unicode="&#xe91c;" glyph-name="arrow-thin-right" d="M828.006 512l-310.835 310.835 72.397 72.397 434.432-434.432-434.432-434.432-72.397 72.397 310.835 310.835h-828.006v102.4z" />
<glyph unicode="&#xe91d;" glyph-name="arrow-thin-left" d="M195.994 512l310.835 310.835-72.397 72.397-434.432-434.432 434.432-434.432 72.397 72.397-310.835 310.835h828.006v102.4h-828.006z" />
<glyph unicode="&#xe91e;" glyph-name="chevron-thin-right1" d="M678.4 460.8l-365.619 379.904c-13.722 13.824-13.722 36.198 0 50.125 13.722 13.824 35.891 13.824 49.613 0l400.896-404.89c13.722-13.875 13.722-36.301 0-50.125l-400.896-404.89c-13.722-13.875-35.891-13.824-49.613 0-13.722 13.773-13.722 36.198 0 50.125l365.619 379.75z" />
<glyph unicode="&#xe91f;" glyph-name="time" d="M1022.026 400.699c-9.194 92.477-50.509 179.661-116.338 245.492-56.257 56.255-125.114 92.405-197.567 108.48v50.817c29.592 7.362 51.589 34.149 51.589 65.987 0 37.497-30.504 68.001-68.001 68.001h-144.002c-37.497 0-68.001-30.504-68.001-68.001 0-31.836 21.996-58.623 51.587-65.987v-50.959c-72.231-16.142-140.86-52.243-196.957-108.34-12.276-12.276-23.596-25.154-33.959-38.539-0.502 0.038-1.004 0.076-1.516 0.076h-142.524c-11.044 0-20-8.954-20-20s8.956-20 20-20h116.826c-14.664-24.55-26.488-50.333-35.489-76.873h-217.673c-11.044 0-20-8.954-20-20s8.956-20 20-20h206.371c-5.764-25.302-9.072-51.053-9.926-76.875h-88.443c-11.044 0-20-8.954-20-20s8.956-20 20-20h89.081c1.688-25.888 5.85-51.641 12.488-76.875h-129.57c-11.044 0-20-8.954-20-20s8.956-20 20-20h142.334c19.62-51.903 50.283-100.55 91.999-142.266 65.893-65.893 153.166-107.218 245.74-116.364 13.212-1.304 26.434-1.95 39.639-1.95 78.045 0 155.098 22.586 220.479 65.163 9.256 6.028 11.874 18.418 5.846 27.674s-18.418 11.874-27.674 5.846c-143.116-93.195-334.785-73.045-455.745 47.915-141.926 141.926-141.926 372.856 0 514.784 141.924 141.924 372.854 141.924 514.782 0 120.8-120.802 141.060-312.307 48.173-455.353-6.016-9.264-3.382-21.652 5.88-27.666 9.268-6.016 21.652-3.382 27.666 5.882 49.629 76.431 71.969 168.743 62.905 259.934zM519.706 871.473c0 15.44 12.56 28 28 28h144.002c15.44 0 28-12.56 28-28s-12.56-28-28-28h-144.002c-15.44 0-28 12.562-28 28zM571.293 761.405v42.067h96.828v-41.995c-32.153 3.824-64.681 3.8-96.828-0.072zM891.554 108.987c-5.28 0-10.42-2.14-14.138-5.86-3.74-3.72-5.862-8.88-5.862-14.14s2.122-10.42 5.862-14.14c3.718-3.74 8.86-5.86 14.138-5.86 5.26 0 10.4 2.12 14.14 5.86 3.72 3.72 5.86 8.88 5.86 14.14s-2.138 10.42-5.86 14.14c-3.74 3.72-8.882 5.86-14.14 5.86zM620.012 670.777c-171.079 0-310.263-139.182-310.263-310.263s139.184-310.263 310.263-310.263 310.263 139.182 310.263 310.263-139.184 310.263-310.263 310.263zM620.012 90.252c-149.024 0-270.262 121.24-270.262 270.262s121.238 270.262 270.262 270.262 270.262-121.24 270.262-270.262-121.238-270.262-270.262-270.262zM746.526 515.313l-99.062-99.060c-8.284 4.096-17.602 6.41-27.452 6.41-9.852 0-19.168-2.314-27.452-6.41l-44.335 44.335c-7.812 7.81-20.472 7.81-28.286 0-7.81-7.81-7.81-20.474 0-28.284l44.335-44.335c-4.098-8.284-6.41-17.602-6.41-27.452 0-34.269 27.878-62.149 62.149-62.149s62.149 27.88 62.149 62.149c0 9.85-2.314 19.168-6.41 27.452l99.060 99.060c7.81 7.81 7.81 20.474 0 28.284s-20.47 7.81-28.284 0zM620.012 338.366c-12.212 0-22.148 9.936-22.148 22.148s9.936 22.148 22.148 22.148 22.148-9.936 22.148-22.148-9.936-22.148-22.148-22.148zM833.853 380.271h-18.53c-11.044 0-20-8.954-20-20s8.956-20 20-20h18.53c11.044 0 20 8.954 20 20s-8.956 20-20 20zM424.699 380.759h-18.528c-11.044 0-20-8.954-20-20s8.956-20 20-20h18.528c11.044 0 20 8.954 20 20s-8.956 20-20 20zM620.256 535.827c11.044 0 20 8.954 20 20v18.528c0 11.046-8.956 20-20 20s-20-8.954-20-20v-18.528c0-11.046 8.956-20 20-20zM619.768 185.202c-11.044 0-20-8.954-20-20v-18.528c0-11.046 8.956-20 20-20s20 8.954 20 20v18.528c0 11.046-8.956 20-20 20zM20 257.109c-5.26 0-10.42-2.14-14.14-5.86s-5.86-8.88-5.86-14.14c0-5.28 2.138-10.42 5.86-14.14s8.88-5.86 14.14-5.86 10.42 2.14 14.138 5.86c3.72 3.72 5.862 8.88 5.862 14.14s-2.14 10.42-5.862 14.14c-3.718 3.72-8.878 5.86-14.138 5.86z" />
<glyph unicode="&#xe920;" glyph-name="chevron-thin-left1" d="M711.219 80.998c13.722-13.926 13.722-36.301 0-50.125s-35.891-13.875-49.613 0l-400.896 404.89c-13.722 13.824-13.722 36.198 0 50.125l400.896 404.89c13.722 13.824 35.891 13.824 49.613 0 13.722-13.875 13.722-36.301 0-50.125l-365.619-379.853 365.619-379.802z" />
<glyph unicode="&#xe921;" glyph-name="check" d="M384 248.667l452 452 60-60-512-512-238 238 60 60z" />
<glyph unicode="&#xe922;" glyph-name="arrow-thin-up1" d="M460.8 776.806l-310.835-310.835-72.397 72.397 434.432 434.432 434.432-434.432-72.397-72.397-310.835 310.835v-828.006h-102.4v828.006z" />
<glyph unicode="&#xe923;" glyph-name="arrow-thin-down1" d="M460.8 144.794l-310.835 310.835-72.397-72.397 434.432-434.432 434.432 434.432-72.397 72.397-310.835-310.835v828.006h-102.4z" />
<glyph unicode="&#xe924;" glyph-name="arrow_right_alt" d="M684 468.667v128l170-170-170-170v128h-514v84h514z" />
<glyph unicode="&#xe925;" glyph-name="document-s" d="M916 197.773v434.891c0 6.398-3.063 12.414-8.234 16.18l-49.375 35.898 38.875 24.297c5.578 3.484 9.086 9.492 9.383 16.063 0.289 6.57-2.664 12.867-7.906 16.836l-36.078 27.336v12.727h33.336c11.047 0 20 8.953 20 20v40c0 65.063-52.938 118-118 118h-682c-0.203 0-0.391-0.023-0.586-0.031-0.461 0.008-0.906 0.031-1.367 0.031-31.492 0-60.75-15.555-82.383-43.805-20.422-26.664-31.664-61.82-31.664-98.992 0-66.828 43.742-121.203 97.508-121.203h110.648v-317c0-6.781 3.43-13.094 9.117-16.781l39.211-25.422-41.656-37.219c-4.242-3.789-6.672-9.219-6.672-14.914v-173.328c0-1.078 0.109-2.133 0.273-3.164-0.164-1.039-0.273-2.094-0.273-3.172 0-50.883 13.141-93.711 37.992-123.852 24.008-29.109 58.148-45.148 96.125-45.148h549.727c72.789 0 132 59.211 132 132 0 64.586-46.641 118.453-108 129.773zM164.148 736c5.891 11.102 9.227 23.914 9.227 37.68 0 46.109-29.867 78.32-72.641 78.32-11.047 0-20-8.953-20-20s8.953-20 20-20c20.438 0 32.641-14.328 32.641-38.32 0-24.477-18.484-37.68-35.867-37.68-31.172 0-57.508 37.188-57.508 81.203 0 56.68 33.219 102.797 74.047 102.797 28.281 0 50.391-8.789 65.695-26.117 18.859-21.336 28.414-55.953 28.414-102.883v-55zM277.008 6.602c-18.875 22.891-28.852 56.914-28.852 98.398 0 1.078-0.109 2.133-0.273 3.172 0.164 1.031 0.273 2.086 0.273 3.164v164.383l54.5 48.703c4.648 4.148 7.102 10.234 6.617 16.453-0.477 6.211-3.828 11.852-9.055 15.242l-52.063 33.75v401.133c0 56.742-12.836 100.133-38.125 129h587.969c43.008 0 78-34.992 78-78v-20h-33.336c-11.039 0-20-8.953-20-20v-42.664c0-6.266 2.938-12.164 7.93-15.945l20.867-15.813-39.391-24.617c-5.641-3.523-9.156-9.617-9.391-16.258s2.852-12.969 8.227-16.875l65.094-47.344v-422.484h-508.469c-0.984 0-1.953-0.094-2.906-0.234-1.922 0.141-3.859 0.234-5.82 0.234-42.539 0-75.867-34.125-75.867-77.68 0-46.117 29.867-78.32 72.641-78.32 11.047 0 20 8.953 20 20s-8.953 20-20 20c-20.438 0-32.641 14.328-32.641 38.32 0 24.477 18.484 37.68 35.867 37.68 31.172 0 57.508-37.188 57.508-81.203 0-56.68-33.211-102.797-74.039-102.797-26.188 0-48.758 10.578-65.266 30.602zM892-24h-470.414c1.031 1.25 2.063 2.5 3.063 3.805 19.172 25.031 30.25 57.555 31.539 92.195h311.813c11.047 0 20 8.953 20 20s-8.953 20-20 20h-315.438c-4.141 18.063-11.563 34.43-21.438 48h460.875c50.727 0 92-41.273 92-92s-41.273-92-92-92zM378.719 764c5.258 0 10.398 2.141 14.141 5.859 3.719 3.719 5.859 8.883 5.859 14.141s-2.141 10.422-5.859 14.141c-3.742 3.719-8.883 5.859-14.141 5.859-5.281 0-10.422-2.141-14.141-5.859s-5.859-8.883-5.859-14.141 2.141-10.422 5.859-14.141c3.719-3.719 8.859-5.859 14.141-5.859zM464 764h288.711c11.047 0 20 8.953 20 20s-8.953 20-20 20h-288.711c-11.047 0-20-8.953-20-20s8.953-20 20-20zM378.711 652h374c11.047 0 20 8.953 20 20s-8.953 20-20 20h-374c-11.039 0-20-8.953-20-20s8.961-20 20-20zM378.711 540h374c11.047 0 20 8.953 20 20s-8.953 20-20 20h-374c-11.039 0-20-8.953-20-20s8.961-20 20-20zM378.711 428h374c11.047 0 20 8.953 20 20s-8.953 20-20 20h-374c-11.039 0-20-8.953-20-20s8.961-20 20-20zM378.711 316h374c11.047 0 20 8.953 20 20s-8.953 20-20 20h-374c-11.039 0-20-8.953-20-20s8.961-20 20-20zM845.742 112c-5.266 0-10.422-2.141-14.141-5.859s-5.859-8.883-5.859-14.141 2.133-10.422 5.859-14.141c3.719-3.719 8.875-5.859 14.141-5.859 5.258 0 10.414 2.141 14.133 5.859 3.727 3.719 5.867 8.883 5.867 14.141s-2.141 10.422-5.867 14.141c-3.719 3.719-8.875 5.859-14.133 5.859z" />
<glyph unicode="&#xe926;" glyph-name="dashboard" d="M833.334 960h-642.668c-105.134 0-190.666-85.534-190.666-190.668v-642.666c0-105.134 85.532-190.666 190.666-190.666h642.668c105.134 0 190.666 85.532 190.666 190.666v642.666c0 105.134-85.532 190.668-190.666 190.668zM964 126.666c0-72.050-58.616-130.666-130.666-130.666h-642.668c-72.050 0-130.666 58.616-130.666 130.666v642.666c0 72.050 58.616 130.668 130.666 130.668h642.668c72.050 0 130.666-58.618 130.666-130.668v-642.666zM801.202 767.2h-385.602c-16.568 0-30-13.432-30-30v-162.8h-162.8c-16.568 0-30-13.432-30-30v-385.602c0-16.568 13.432-30 30-30h385.6c16.568 0 30 13.432 30 30v162.8h162.8c16.568 0 30 13.432 30 30v385.602c0.002 16.568-13.43 30-29.998 30zM578.4 188.798h-325.6v325.602h325.6v-325.602zM771.204 381.6h-132.802v162.8c0 16.568-13.432 30-30 30h-162.8v132.8h325.602v-325.6z" />
<glyph unicode="&#xe927;" glyph-name="document" d="M704.918 520c0 22.092-17.908 40-40 40h-412c-22.092 0-40-17.908-40-40s17.908-40 40-40h412c22.092 0 40 17.908 40 40zM252.918 400c-22.092 0-40-17.908-40-40s17.908-40 40-40h250.222c22.092 0 40 17.908 40 40s-17.908 40-40 40h-250.222zM346.918 16h-133.778c-44.112 0-80 35.888-80 80v704c0 44.112 35.888 80 80 80h491.778c44.112 0 80-35.888 80-80v-246c0-22.092 17.908-40 40-40s40 17.908 40 40v246c0 88.224-71.776 160-160 160h-491.778c-88.224 0-160-71.776-160-160v-704c0-88.224 71.776-160 160-160h133.778c22.092 0 40 17.908 40 40s-17.908 40-40 40zM935.768 380.856c-46.788 46.788-122.916 46.79-169.674 0.032l-219.606-219.12c-4.664-4.654-8.104-10.386-10.020-16.69l-47.826-157.45c-4.24-13.96-0.546-29.118 9.642-39.56 7.632-7.822 18-12.068 28.634-12.068 3.558 0 7.15 0.476 10.676 1.454l161.45 44.722c6.644 1.84 12.7 5.366 17.58 10.238l219.146 218.734c46.788 46.788 46.788 122.916-0.002 169.708zM667.552 56.464l-81.224-22.5 23.77 78.258 148.178 147.85 56.58-56.58-147.304-147.028zM879.23 267.74l-7.75-7.734-56.57 56.57 7.724 7.708c15.596 15.596 40.972 15.596 56.568 0s15.596-40.972 0.028-56.544zM664.918 720h-412c-22.092 0-40-17.908-40-40s17.908-40 40-40h412c22.092 0 40 17.908 40 40s-17.908 40-40 40z" />
<glyph unicode="&#xe928;" glyph-name="clearclose" d="M810 664.667l-238-238 238-238-60-60-238 238-238-238-60 60 238 238-238 238 60 60 238-238 238 238z" />
<glyph unicode="&#xe929;" glyph-name="done" d="M384 246.667l452 454 60-60-512-512-238 238 58 60z" />
<glyph unicode="&#xe92a;" glyph-name="done_all" d="M18 366.667l60 60 238-238-60-60zM948 700.667l62-60-512-512-240 238 62 60 178-178zM768 640.667l-270-272-60 60 270 272z" />
<glyph unicode="&#xe92b;" glyph-name="lock" d="M877.714 594.285h-36.572v36.572c-0.201 181.697-147.446 328.941-329.143 329.143-181.697-0.201-328.941-147.446-329.143-329.143v-36.572h-36.57c-20.199 0-36.572-16.374-36.572-36.572v-585.141c0-20.199 16.374-36.572 36.572-36.572h731.427c20.199 0 36.572 16.374 36.572 36.572v585.143c0 20.196-16.374 36.57-36.572 36.57zM256.001 630.857c0 141.386 114.615 256.001 256.001 256.001s255.998-114.615 255.998-256.001v-36.572h-511.999v36.572zM841.142 9.144h-658.285v511.999h658.285v-511.999zM615.447 338.334c-15.452 43.869-56.938 73.183-103.448 73.095-60.452 0.114-109.551-48.799-109.665-109.251-0.088-46.511 29.226-87.996 73.095-103.448v-79.873c0-20.199 16.374-36.572 36.572-36.572s36.57 16.376 36.57 36.574v79.871c57.019 20.083 86.961 82.588 66.876 139.605zM511.999 265.143c-20.199 0-36.572 16.374-36.572 36.572s16.374 36.572 36.572 36.572 36.572-16.374 36.572-36.572-16.374-36.572-36.572-36.572z" />
<glyph unicode="&#xe92c;" glyph-name="logout" d="M724 176v-80c0-88.227-71.773-160-160-160h-402c-88.227 0-160 71.773-160 160v704c0 88.227 71.773 160 160 160h402c88.227 0 160-71.773 160-160v-80c0-22.094-17.906-40-40-40s-40 17.906-40 40v80c0 44.109-35.891 80-80 80h-402c-44.109 0-80-35.891-80-80v-704c0-44.109 35.891-80 80-80h402c44.109 0 80 35.891 80 80v80c0 22.094 17.906 40 40 40s40-17.906 40-40zM996.711 516.711l-89.57 89.57c-15.625 15.625-40.953 15.625-56.57 0-15.625-15.617-15.625-40.945 0-56.563l63.711-63.719h-480.281c-22.094 0-40-17.906-40-40s17.906-40 40-40h480.281l-63.711-63.719c-15.625-15.617-15.625-40.945 0-56.563 7.813-7.813 18.047-11.719 28.281-11.719 10.242 0 20.477 3.906 28.289 11.719l89.57 89.57c38.992 38.992 38.992 102.43 0 141.422z" />
<glyph unicode="&#xe92d;" glyph-name="notification" d="M900.402 145.094c-3.010 1.954-25.664 17.824-48.348 65.834-41.658 88.164-50.402 212.36-50.402 301.022 0 0.386-0.008 0.768-0.022 1.152-0.454 117.178-70.62 218.19-171.028 263.512v69.314c0 62.9-51.088 114.072-113.884 114.072h-9.438c-62.796 0-113.884-51.172-113.884-114.072v-69.31c-100.744-45.468-171.050-146.996-171.050-264.668 0-88.662-8.744-212.856-50.402-301.022-22.682-48.008-45.336-63.878-48.348-65.834-12.684-5.87-18.938-19.43-16.020-33.172 2.946-13.878 15.918-23.446 30.084-23.446h219.894c1.228-84.282 70.016-152.476 154.446-152.476s153.218 68.194 154.446 152.476h219.894c14.164 0 27.138 9.568 30.084 23.446 2.914 13.742-3.338 27.304-16.022 33.172zM453.398 845.928c0 29.762 24.172 53.974 53.884 53.974h9.438c29.712 0 53.884-24.212 53.884-53.974v-49.834c-18.936 3.914-38.538 5.974-58.612 5.974-20.068 0-39.664-2.058-58.592-5.968v49.828zM512-3.902c-51.346 0-93.228 41.234-94.446 92.376h188.89c-1.216-51.14-43.098-92.376-94.444-92.376zM632.8 148.576c-0.006 0-426.77 0-426.77 0 5.19 8.088 10.472 17.246 15.722 27.596 40.208 79.286 60.596 192.258 60.596 335.778 0 126.834 103.018 230.020 229.642 230.020s229.642-103.186 229.642-230.12c0-0.37 0.006-0.738 0.020-1.106 0.114-142.944 20.5-255.51 60.596-334.572 5.25-10.352 10.534-19.508 15.722-27.596z" />
<glyph unicode="&#xe92e;" glyph-name="pencil" d="M996.727 793.816l-139.636 139.753c-35.182 35.212-96.386 35.28-131.705-0.068l-625.541-631.714c-2.773-2.797-4.774-6.233-5.865-10.008l-93.089-326.095c-2.319-8.121-0.046-16.878 5.932-22.861 4.431-4.436 10.364-6.825 16.455-6.825 2.136 0 4.296 0.297 6.386 0.888l325.816 93.17c3.772 1.091 7.204 3.094 9.999 5.869l631.247 626.141c17.592 17.605 27.273 40.99 27.273 65.873s-9.681 48.27-27.273 65.875zM623.972 764.211l85.666-85.666-447.261-447.264-32.099 64.219c-3.956 7.887-12 12.864-20.819 12.864h-37.27l451.782 455.847zM57.165-6.839l30.314 106.116 75.8-75.8-106.114-30.316zM325.822 69.911l-111.348-31.809-112.37 112.37 31.809 111.348h61.158l40.112-80.227c2.249-4.501 5.908-8.16 10.409-10.409l80.227-40.112v-61.16zM372.369 108.186v37.27c0 8.819-4.977 16.863-12.864 20.819l-64.219 32.099 447.261 447.261 85.666-85.666-455.845-451.782zM963.887 694.431l-102.617-101.701-204.538 204.538 101.633 102.547c17.592 17.592 48.227 17.592 65.819 0l139.636-139.636c8.795-8.795 13.636-20.476 13.636-32.908s-4.841-24.113-13.569-32.841z" />
<glyph unicode="&#xe92f;" glyph-name="settings" d="M512-64c-61.758 0-112 50.244-112 112v32.596c-23.726 7.212-46.662 16.718-68.584 28.424l-23.068-23.068c-21.148-21.146-49.27-32.792-79.188-32.792-29.932 0-58.062 11.646-79.208 32.792-43.658 43.686-43.654 114.74 0.002 158.394l23.068 23.068c-11.706 21.922-21.21 44.86-28.424 68.584h-32.598c-29.906 0-58.028 11.654-79.188 32.814s-32.812 49.284-32.812 79.188c0 61.756 50.242 112 112 112h32.598c7.212 23.726 16.718 46.662 28.424 68.584l-23.068 23.068c-21.148 21.148-32.794 49.27-32.794 79.188 0 29.93 11.646 58.060 32.792 79.208 43.688 43.662 114.74 43.656 158.396 0l23.068-23.068c21.922 11.706 44.858 21.21 68.584 28.424v32.596c0 29.904 11.652 58.026 32.81 79.186 21.162 21.16 49.284 32.814 79.19 32.814 7.442 0 14.944-0.75 22.298-2.226 52.008-10.566 89.702-56.728 89.702-109.774v-32.596c23.726-7.212 46.662-16.718 68.584-28.424l23.068 23.068c21.148 21.146 49.27 32.792 79.188 32.792 29.932 0 58.062-11.646 79.208-32.792 43.658-43.686 43.654-114.74-0.002-158.394l-23.068-23.068c11.706-21.922 21.21-44.86 28.424-68.584h32.598c29.906 0 58.028-11.654 79.188-32.814s32.812-49.284 32.812-79.188c0-61.756-50.242-112-112-112h-32.598c-7.212-23.726-16.718-46.662-28.424-68.584l23.068-23.068c21.146-21.148 32.792-49.27 32.792-79.188 0-29.93-11.646-58.060-32.792-79.208-21.842-21.828-50.532-32.742-79.208-32.744-28.686-0.002-57.358 10.912-79.188 32.742l-23.068 23.068c-21.922-11.706-44.858-21.21-68.584-28.424v-32.594c0-29.904-11.652-58.026-32.81-79.186-15.626-15.626-35.274-26.198-56.82-30.574-0.024-0.004-0.046-0.010-0.070-0.014-7.354-1.476-14.856-2.226-22.298-2.226zM528-30.4h0.020zM326.15 181c5.826 0 11.686-1.586 16.906-4.838 29.784-18.548 62.142-31.956 96.176-39.852 14.502-3.364 24.768-16.286 24.768-31.172v-57.138c0-26.466 21.534-48 48-48 3.202 0 6.444 0.324 9.642 0.962 9.184 1.868 17.584 6.4 24.292 13.106 9.070 9.072 14.066 21.122 14.066 33.932v57.14c0 14.886 10.266 27.808 24.768 31.172 34.034 7.896 66.392 21.304 96.176 39.852 12.628 7.866 29.022 5.988 39.542-4.536l40.42-40.42c18.71-18.708 49.166-18.708 67.892 0.008 9.052 9.052 14.042 21.11 14.042 33.946 0 12.822-4.988 24.874-14.048 33.932l-40.418 40.418c-10.524 10.524-12.402 26.912-4.538 39.542 18.548 29.786 31.958 62.144 39.852 96.176 3.364 14.502 16.286 24.768 31.172 24.768h57.14c26.466 0 48 21.534 48 48 0 12.81-4.996 24.86-14.068 33.932-9.070 9.074-21.122 14.070-33.932 14.070h-57.14c-14.886 0-27.808 10.266-31.172 24.768-7.894 34.032-21.302 66.39-39.852 96.176-7.866 12.632-5.986 29.020 4.538 39.542l40.42 40.418c18.71 18.71 18.708 49.166-0.008 67.892-9.050 9.052-21.11 14.040-33.946 14.040-12.822 0-24.876-4.99-33.934-14.048l-40.42-40.418c-10.524-10.526-26.912-12.402-39.542-4.536-29.784 18.548-62.142 31.956-96.176 39.852-14.502 3.366-24.768 16.288-24.768 31.174v57.14c0 22.74-16.136 42.524-38.372 47.042-3.144 0.63-6.408 0.958-9.628 0.958-12.81 0-24.862-4.996-33.934-14.068-9.070-9.072-14.066-21.122-14.066-33.932v-57.14c0-14.886-10.266-27.808-24.768-31.172-34.034-7.896-66.392-21.304-96.176-39.852-12.626-7.868-29.020-5.988-39.542 4.536l-40.42 40.42c-18.71 18.71-49.166 18.706-67.892-0.008-9.052-9.052-14.042-21.11-14.042-33.946 0-12.822 4.988-24.874 14.048-33.932l40.418-40.418c10.524-10.524 12.402-26.912 4.538-39.542-18.548-29.786-31.958-62.144-39.852-96.176-3.362-14.504-16.284-24.77-31.172-24.77h-57.14c-26.466 0-48-21.534-48-48 0-12.81 4.996-24.86 14.068-33.932 9.070-9.072 21.122-14.068 33.932-14.068h57.14c14.886 0 27.808-10.266 31.172-24.768 7.894-34.032 21.302-66.39 39.852-96.176 7.866-12.632 5.986-29.020-4.538-39.542l-40.42-40.418c-18.71-18.71-18.708-49.166 0.008-67.892 9.050-9.052 21.11-14.040 33.946-14.040 12.822 0 24.876 4.99 33.934 14.048l40.42 40.418c6.174 6.172 14.368 9.37 22.636 9.37zM512 224c-123.514 0-224 100.486-224 224s100.486 224 224 224c6.362 0 12.678-0.27 18.778-0.8 55.696-4.578 107.484-29.83 145.67-71.096 38.402-41.5 59.552-95.52 59.552-152.104s-21.15-110.604-59.552-152.104c-38.186-41.266-89.974-66.518-145.826-71.11-5.944-0.516-12.26-0.786-18.622-0.786zM512 608c-88.224 0-160-71.776-160-160s71.776-160 160-160c4.516 0 8.964 0.188 13.222 0.558 82.374 6.772 146.778 76.8 146.778 159.442s-64.404 152.67-146.622 159.428c-4.414 0.384-8.862 0.572-13.378 0.572z" />
<glyph unicode="&#xe930;" glyph-name="to-do-list" d="M352 508c0-11.046-8.954-20-20-20s-20 8.954-20 20c0 11.046 8.954 20 20 20s20-8.954 20-20zM352 388c0-11.046-8.954-20-20-20s-20 8.954-20 20c0 11.046 8.954 20 20 20s20-8.954 20-20zM352 268c0-11.046-8.954-20-20-20s-20 8.954-20 20c0 11.046 8.954 20 20 20s20-8.954 20-20zM352 148c0-11.046-8.954-20-20-20s-20 8.954-20 20c0 11.046 8.954 20 20 20s20-8.954 20-20zM452 488h240c11.044 0 20 8.956 20 20s-8.956 20-20 20h-240c-11.044 0-20-8.956-20-20s8.956-20 20-20zM452 368h240c11.044 0 20 8.956 20 20s-8.956 20-20 20h-240c-11.044 0-20-8.956-20-20s8.956-20 20-20zM452 248h240c11.044 0 20 8.956 20 20s-8.956 20-20 20h-240c-11.044 0-20-8.956-20-20s8.956-20 20-20zM452 128h240c11.044 0 20 8.956 20 20s-8.956 20-20 20h-240c-11.044 0-20-8.956-20-20s8.956-20 20-20zM812 780h-162.532c-7.252 28.070-29.396 50.216-57.468 57.468v42.532c0 44.112-35.888 80-80 80s-80-35.888-80-80v-42.532c-28.070-7.252-50.216-29.398-57.468-57.468h-162.532c-11.044 0-20-8.956-20-20v-804c0-11.044 8.956-20 20-20h210c11.044 0 20 8.956 20 20s-8.956 20-20 20h-190v764h140v-40c0-11.044 8.956-20 20-20h240c11.044 0 20 8.956 20 20v40h140v-764h-190c-11.044 0-20-8.956-20-20s8.956-20 20-20h210c11.044 0 20 8.956 20 20v804c0 11.044-8.954 20-20 20zM472 880c0 22.056 17.944 40 40 40s40-17.944 40-40v-40h-80zM612 720h-200v40c0 22.056 17.944 40 40 40h120c22.056 0 40-17.944 40-40zM532-44c0-11.046-8.954-20-20-20s-20 8.954-20 20c0 11.046 8.954 20 20 20s20-8.954 20-20z" />
<glyph unicode="&#xe931;" glyph-name="user" d="M504.702 466.735c67.765 0 126.437 24.305 174.39 72.258 47.937 47.945 72.25 106.609 72.25 174.382 0 67.75-24.305 126.422-72.258 174.382-47.953 47.937-106.625 72.242-174.382 72.242-67.773 0-126.437-24.305-174.382-72.25s-72.258-106.617-72.258-174.375c0-67.773 24.312-126.445 72.258-174.39 47.961-47.937 106.633-72.25 174.382-72.25zM372.757 845.321c36.789 36.789 79.945 54.672 131.945 54.672 51.992 0 95.156-17.883 131.953-54.672 36.789-36.797 54.68-79.961 54.68-131.945 0-52-17.891-95.156-54.68-131.953-36.797-36.797-79.961-54.68-131.953-54.68-51.984 0-95.14 17.891-131.945 54.68-36.797 36.789-54.687 79.953-54.687 131.953 0 51.984 17.891 95.148 54.687 131.945zM936.256 172.595c-1.383 19.953-4.18 41.719-8.297 64.703-4.156 23.156-9.508 45.047-15.914 65.055-6.625 20.68-15.617 41.101-26.75 60.672-11.539 20.312-25.102 38-40.32 52.555-15.914 15.227-35.398 27.469-57.93 36.398-22.453 8.883-47.336 13.383-73.953 13.383-10.453 0-20.562-4.289-40.086-17-12.016-7.836-26.070-16.898-41.758-26.922-13.414-8.547-31.586-16.555-54.031-23.805-21.898-7.086-44.133-10.68-66.086-10.68-21.937 0-44.172 3.594-66.086 10.68-22.422 7.242-40.601 15.25-53.992 23.797-15.539 9.93-29.602 18.992-41.797 26.937-19.508 12.711-29.617 17-40.070 17-26.625 0-51.5-4.508-73.945-13.398-22.516-8.914-42.008-21.156-57.937-36.398-15.219-14.562-28.781-32.242-40.312-52.547-11.117-19.57-20.117-39.984-26.742-60.68-6.398-20.008-11.75-41.891-15.906-65.047-4.125-22.953-6.914-44.726-8.297-64.726-1.359-19.555-2.047-39.906-2.047-60.469 0-53.453 16.992-96.726 50.5-128.64 33.094-31.492 76.875-47.461 130.133-47.461h493.062c53.242 0 97.023 15.969 130.125 47.461 33.516 31.891 50.508 75.18 50.508 128.648-0.008 20.633-0.703 40.984-2.070 60.484zM846.444 26.939c-21.867-20.812-50.898-30.93-88.758-30.93h-493.054c-37.867 0-66.898 10.117-88.758 30.922-21.445 20.414-31.867 48.281-31.867 85.172 0 19.187 0.633 38.133 1.898 56.32 1.234 17.844 3.758 37.445 7.5 58.273 3.695 20.57 8.398 39.875 13.992 57.351 5.367 16.758 12.687 33.351 21.766 49.336 8.664 15.234 18.633 28.305 29.633 38.836 10.289 9.852 23.258 17.914 38.539 23.961 14.133 5.594 30.016 8.656 47.258 9.117 2.102-1.117 5.844-3.25 11.906-7.203 12.336-8.039 26.555-17.211 42.273-27.25 17.719-11.297 40.547-21.5 67.82-30.305 27.883-9.016 56.32-13.594 84.547-13.594s56.672 4.578 84.539 13.586c27.297 8.82 50.117 19.016 67.859 30.328 16.086 10.281 29.906 19.187 42.242 27.234 6.062 3.945 9.805 6.086 11.906 7.203 17.25-0.461 33.133-3.523 47.273-9.117 15.273-6.047 28.242-14.117 38.531-23.961 11-10.523 20.969-23.594 29.633-38.844 9.086-15.977 16.414-32.578 21.773-49.32 5.602-17.5 10.312-36.797 14-57.351 3.734-20.867 6.266-40.476 7.5-58.289v-0.016c1.273-18.117 1.914-37.055 1.922-56.297-0.008-36.898-10.43-64.758-31.875-85.164z" />
</font>
</defs>
</svg>
